<svg xmlns="http://www.w3.org/2000/svg" width="1080" height="1080" viewBox="0 0 1080 1080" version="1.1"><path d="M 361 524.500 L 361 711 419.499 711 L 477.997 711 512.875 641.250 L 547.752 571.501 582.623 641.250 L 617.493 711 675.747 711 L 734 711 734 524.490 L 734 337.980 687.250 338.240 L 640.500 338.500 640 453.257 L 639.500 568.014 605.251 499.507 L 571.002 431 547.748 431 L 524.493 431 489.803 500.250 L 455.112 569.500 455.056 453.750 L 455 338 408 338 L 361 338 361 524.500" stroke="none" fill="#ffffff" fill-rule="evenodd"/><path d="M 363.500 150.515 C 340.865 154.714, 317.407 166.985, 299.308 184.095 C 292.166 190.847, 286.951 197.324, 282.477 205 C 280.393 208.575, 275.539 216.900, 271.691 223.500 C 267.843 230.100, 263.031 238.425, 260.996 242 C 258.962 245.575, 252.214 257.275, 246 268 C 239.786 278.725, 233.052 290.425, 231.035 294 C 229.018 297.575, 222.939 308.150, 217.526 317.500 C 212.112 326.850, 207.192 335.400, 206.591 336.500 C 205.991 337.600, 205.275 338.725, 205 339 C 204.725 339.275, 203.895 340.574, 203.156 341.887 C 202.417 343.200, 200.954 345.787, 199.906 347.637 C 198.858 349.487, 197.142 352.513, 196.094 354.363 C 195.046 356.213, 193.583 358.800, 192.844 360.113 C 192.105 361.426, 191.275 362.725, 191 363 C 190.725 363.275, 189.557 365.300, 188.404 367.500 C 185.440 373.157, 182.047 379.079, 180.097 382 C 179.179 383.375, 177.785 385.850, 177 387.500 C 176.215 389.150, 174.821 391.625, 173.903 393 C 172.985 394.375, 171.337 397.075, 170.241 399 C 169.145 400.925, 164.055 409.700, 158.929 418.500 C 153.803 427.300, 148.900 435.850, 148.033 437.500 C 147.166 439.150, 143.815 445, 140.587 450.500 C 137.358 456, 132.917 463.650, 130.719 467.500 C 128.520 471.350, 125.263 476.975, 123.482 480 C 118.920 487.747, 116.240 493.218, 114.564 498.200 C 105.394 525.464, 105.294 554.320, 114.277 581 C 115.676 585.153, 120.976 595.592, 126.973 606 C 135.028 619.983, 137.071 623.497, 138.017 625 C 139.419 627.226, 144.970 636.924, 147.461 641.500 C 151.222 648.406, 171.984 684.162, 173.820 686.894 C 174.784 688.327, 176.215 690.850, 177 692.500 C 177.785 694.150, 179.179 696.625, 180.097 698 C 182.047 700.921, 185.440 706.843, 188.404 712.500 C 189.557 714.700, 190.725 716.725, 191 717 C 191.275 717.275, 191.992 718.400, 192.594 719.500 C 195.194 724.255, 196.533 726.533, 197 727 C 197.275 727.275, 198.443 729.300, 199.596 731.500 C 202.437 736.922, 206.047 743.282, 206.975 744.500 C 207.756 745.526, 224.476 774.369, 231.032 786 C 233.047 789.575, 239.788 801.275, 246.013 812 C 252.237 822.725, 258.988 834.425, 261.015 838 C 284.375 879.208, 287.900 884.634, 297.233 893.765 C 316.826 912.933, 339.939 925.240, 364.500 929.583 C 376.717 931.743, 703.777 931.685, 715.500 929.520 C 726.721 927.448, 729.424 926.687, 738.488 923.043 C 753.393 917.051, 765.714 909.336, 778.048 898.271 C 786.967 890.269, 792.308 883.883, 797.508 875 C 807.012 858.763, 815.609 843.966, 819.004 838 C 821.038 834.425, 827.786 822.725, 834 812 C 840.214 801.275, 846.948 789.575, 848.965 786 C 850.982 782.425, 857.061 771.850, 862.474 762.500 C 867.888 753.150, 872.808 744.600, 873.409 743.500 C 874.009 742.400, 874.725 741.275, 875 741 C 875.629 740.371, 877.741 736.672, 880.425 731.500 C 881.566 729.300, 882.725 727.275, 883 727 C 883.275 726.725, 884.063 725.487, 884.750 724.250 C 885.438 723.013, 886.563 720.987, 887.250 719.750 C 887.938 718.513, 888.725 717.275, 889 717 C 889.275 716.725, 890.443 714.700, 891.596 712.500 C 894.560 706.843, 897.953 700.921, 899.903 698 C 900.821 696.625, 902.215 694.150, 903 692.500 C 903.785 690.850, 905.216 688.327, 906.180 686.894 C 908.016 684.162, 928.778 648.406, 932.539 641.500 C 935.030 636.924, 940.581 627.226, 941.983 625 C 942.999 623.386, 946.187 617.892, 953.009 606 C 964.064 586.728, 965.033 584.525, 968.856 570 C 970.646 563.201, 971.292 558.754, 972.488 545 C 973.099 537.969, 971.064 518.277, 968.870 510 C 965.986 499.119, 964.384 494.678, 961.016 488.235 C 957.433 481.380, 953.236 474.047, 939.413 450.500 C 936.185 445, 932.833 439.150, 931.964 437.500 C 929.434 432.693, 908.104 395.969, 906.180 393.106 C 905.216 391.673, 903.785 389.150, 903 387.500 C 902.215 385.850, 900.821 383.375, 899.903 382 C 897.953 379.079, 894.560 373.157, 891.596 367.500 C 890.443 365.300, 889.275 363.275, 889 363 C 888.725 362.725, 888.008 361.600, 887.406 360.500 C 884.806 355.745, 883.467 353.467, 883 353 C 882.725 352.725, 881.566 350.700, 880.425 348.500 C 877.741 343.328, 875.629 339.629, 875 339 C 874.725 338.725, 874.009 337.600, 873.409 336.500 C 872.808 335.400, 867.888 326.850, 862.474 317.500 C 857.061 308.150, 850.982 297.575, 848.965 294 C 846.948 290.425, 840.214 278.725, 834 268 C 827.786 257.275, 821.038 245.575, 819.004 242 C 815.609 236.034, 807.012 221.237, 797.508 205 C 785.895 185.163, 763.694 167.090, 738.488 156.957 C 729.424 153.313, 726.721 152.552, 715.500 150.480 C 708.632 149.212, 683.661 149.018, 539 149.110 C 405.472 149.194, 369.047 149.486, 363.500 150.515 M 361 524.500 L 361 711 419.499 711 L 477.997 711 512.875 641.250 L 547.752 571.501 582.623 641.250 L 617.493 711 675.747 711 L 734 711 734 524.490 L 734 337.980 687.250 338.240 L 640.500 338.500 640 453.257 L 639.500 568.014 605.251 499.507 L 571.002 431 547.748 431 L 524.493 431 489.803 500.250 L 455.112 569.500 455.056 453.750 L 455 338 408 338 L 361 338 361 524.500" stroke="none" fill="#17506b" fill-rule="evenodd"/></svg>